<svg width="20" height="17" viewBox="0 0 20 17" fill="none" xmlns="http://www.w3.org/2000/svg">
<g filter="url(#filter0_d)">
<path d="M16.6666 0.333252H3.33329C2.41663 0.333252 1.67496 1.08325 1.67496 1.99992L1.66663 11.9999C1.66663 12.9166 2.41663 13.6666 3.33329 13.6666H16.6666C17.5833 13.6666 18.3333 12.9166 18.3333 11.9999V1.99992C18.3333 1.08325 17.5833 0.333252 16.6666 0.333252ZM16.3333 3.87492L10.4416 7.55825C10.175 7.72492 9.82496 7.72492 9.55829 7.55825L3.66663 3.87492C3.58307 3.82801 3.50989 3.76464 3.45153 3.68863C3.39317 3.61262 3.35084 3.52557 3.32711 3.43273C3.30337 3.33989 3.29871 3.2432 3.31342 3.14851C3.32813 3.05382 3.36191 2.9631 3.41269 2.88184C3.46348 2.80058 3.53023 2.73046 3.6089 2.67575C3.68757 2.62103 3.77652 2.58284 3.87037 2.5635C3.96423 2.54416 4.06103 2.54406 4.15492 2.56321C4.24881 2.58236 4.33785 2.62036 4.41663 2.67492L9.99996 6.16658L15.5833 2.67492C15.6621 2.62036 15.7511 2.58236 15.845 2.56321C15.9389 2.54406 16.0357 2.54416 16.1295 2.5635C16.2234 2.58284 16.3124 2.62103 16.391 2.67575C16.4697 2.73046 16.5364 2.80058 16.5872 2.88184C16.638 2.9631 16.6718 3.05382 16.6865 3.14851C16.7012 3.2432 16.6966 3.33989 16.6728 3.43273C16.6491 3.52557 16.6067 3.61262 16.5484 3.68863C16.49 3.76464 16.4169 3.82801 16.3333 3.87492Z" fill="#BDBDBD"/>
</g>
<defs>
<filter id="filter0_d" x="-2.33337" y="0.333252" width="24.6667" height="21.3333" filterUnits="userSpaceOnUse" color-interpolation-filters="sRGB">
<feFlood flood-opacity="0" result="BackgroundImageFix"/>
<feColorMatrix in="SourceAlpha" type="matrix" values="0 0 0 0 0 0 0 0 0 0 0 0 0 0 0 0 0 0 127 0"/>
<feOffset dy="4"/>
<feGaussianBlur stdDeviation="2"/>
<feColorMatrix type="matrix" values="0 0 0 0 0 0 0 0 0 0 0 0 0 0 0 0 0 0 0.25 0"/>
<feBlend mode="normal" in2="BackgroundImageFix" result="effect1_dropShadow"/>
<feBlend mode="normal" in="SourceGraphic" in2="effect1_dropShadow" result="shape"/>
</filter>
</defs>
</svg>
